<?xml version="1.0" encoding="UTF-8"?>
<svg xmlns="http://www.w3.org/2000/svg" xmlns:xlink="http://www.w3.org/1999/xlink" width="140pt" height="60.5pt" viewBox="0 0 140 60.5" version="1.1">
<defs>
<clipPath id="clip1">
  <path d="M 42 35 L 65 35 L 65 60.5 L 42 60.5 Z M 42 35 "/>
</clipPath>
<clipPath id="clip2">
  <path d="M 62 36 L 89 36 L 89 60.5 L 62 60.5 Z M 62 36 "/>
</clipPath>
<clipPath id="clip3">
  <path d="M 87 35 L 112 35 L 112 60.5 L 87 60.5 Z M 87 35 "/>
</clipPath>
<style>
.letters {
  fill: black;
}
</style>
</defs>
<g id="surface1">
<path style=" stroke:none;fill-rule:nonzero;fill:rgb(14.898682%,23.899841%,53.29895%);fill-opacity:1;" d="M 99.460938 7.40625 C 98.667969 7.546875 97.878906 7.703125 97.089844 7.886719 C 75.710938 12.859375 55.007813 33.949219 55.007813 33.949219 C 69.429688 21.34375 83.53125 13.503906 95.054688 10.652344 C 95.734375 10.484375 96.402344 10.339844 97.058594 10.207031 C 101.003906 9.410156 104.609375 9.234375 107.785156 9.683594 C 107.855469 8.71875 107.898438 7.800781 107.902344 6.933594 C 105.121094 6.726563 102.292969 6.914063 99.460938 7.40625 "/>
<path style=" stroke:none;fill-rule:nonzero;fill:rgb(14.898682%,23.899841%,53.29895%);fill-opacity:1;" d="M 112.015625 7.535156 C 111.882813 7.503906 111.75 7.480469 111.621094 7.453125 C 111.679688 8.433594 111.703125 9.503906 111.6875 10.644531 C 123.242188 15.167969 116.113281 33.949219 116.113281 33.949219 C 118.097656 31.324219 125.371094 10.558594 112.015625 7.535156 "/>
<path style=" stroke:none;fill-rule:nonzero;fill:rgb(33.699036%,62.69989%,82.699585%);fill-opacity:1;" d="M 80.367188 33.921875 C 80.367188 33.921875 88.910156 20.085938 97.058594 10.207031 C 96.402344 10.339844 95.734375 10.484375 95.054688 10.648438 C 91.277344 15.941406 86.464844 23.5 80.367188 33.921875 "/>
<path style=" stroke:none;fill-rule:nonzero;fill:rgb(33.699036%,62.69989%,82.699585%);fill-opacity:1;" d="M 111.621094 7.457031 C 111.382813 3.414063 110.558594 0.832031 109.277344 0.527344 C 109.210938 0.511719 109.144531 0.503906 109.074219 0.492188 L 108.8125 0.46875 L 105.730469 0.167969 C 105.734375 0.167969 105.734375 0.0820313 105.738281 0.0820313 C 105.617188 0.0742188 105.484375 0 105.347656 0 L 105.269531 0 L 105.269531 0.179688 C 103.664063 0.375 101.0625 2.621094 97.050781 7.886719 C 97.839844 7.707031 98.648438 7.546875 99.441406 7.410156 C 101.925781 4.628906 104.300781 2.457031 106.273438 1.328125 C 106.480469 1.210938 106.695313 1.0625 106.894531 1.0625 C 107.609375 2.125 107.925781 4.324219 107.902344 6.988281 C 107.894531 7.855469 107.855469 8.746094 107.78125 9.710938 C 107.121094 18.152344 103.894531 29.675781 99.625 33.980469 C 103.640625 33.757813 106.070313 35.324219 107.3125 36.105469 C 110.277344 26.648438 111.613281 17.363281 111.6875 10.648438 C 111.703125 9.507813 111.679688 8.4375 111.621094 7.457031 "/>
<path class="letters" style=" stroke:none;fill-rule:nonzero;fill-opacity:1;" d="M 36.632813 23.0625 L 36.632813 54.320313 C 36.632813 56.082031 36.871094 57.234375 37.34375 57.777344 C 37.816406 58.320313 38.808594 58.585938 40.320313 58.585938 L 40.59375 58.585938 L 40.59375 59.882813 L 28.714844 59.882813 L 28.714844 58.585938 L 29.097656 58.585938 C 30.578125 58.585938 31.539063 58.320313 31.992188 57.777344 C 32.449219 57.234375 32.675781 56.082031 32.675781 54.320313 L 32.675781 32.324219 C 32.675781 30.3125 32.535156 29.03125 32.265625 28.488281 C 31.984375 27.941406 31.214844 27.398438 29.949219 26.851563 L 28.742188 26.347656 L 28.742188 26.011719 L 36.632813 23.0625 "/>
<g clip-path="url(#clip1)" clip-rule="nonzero">
<path class="letters" style=" stroke:none;fill-rule:nonzero;fill-opacity:1;" d="M 56.128906 47.714844 L 54.925781 48.09375 C 51.660156 49.109375 49.519531 50.027344 48.496094 50.84375 C 47.476563 51.65625 46.96875 52.832031 46.96875 54.363281 C 46.96875 55.367188 47.316406 56.238281 48.011719 56.976563 C 48.710938 57.710938 49.527344 58.082031 50.472656 58.082031 C 52.046875 58.082031 53.503906 57.351563 54.84375 55.882813 C 55.699219 54.917969 56.128906 53.585938 56.128906 51.890625 Z M 56.46875 55.738281 C 55.222656 57.324219 53.90625 58.515625 52.515625 59.308594 C 51.121094 60.101563 49.652344 60.5 48.09375 60.5 C 46.539063 60.5 45.246094 59.976563 44.214844 58.9375 C 43.183594 57.898438 42.667969 56.589844 42.667969 55.015625 C 42.667969 53.269531 43.488281 51.789063 45.125 50.570313 C 46.761719 49.34375 49.460938 48.207031 53.226563 47.148438 L 56.128906 46.304688 L 56.128906 43.019531 C 56.128906 41.578125 56.042969 40.574219 55.875 40.007813 C 55.710938 39.441406 55.34375 38.960938 54.78125 38.570313 C 53.925781 37.941406 52.878906 37.625 51.628906 37.625 C 50.339844 37.625 49.371094 37.898438 48.726563 38.445313 C 48.082031 38.984375 47.761719 39.804688 47.761719 40.910156 L 47.761719 41.953125 L 43.179688 43.414063 L 43.179688 42.785156 C 43.179688 41.097656 44.160156 39.496094 46.121094 37.980469 C 48.050781 36.507813 50.460938 35.773438 53.339844 35.773438 C 55.71875 35.773438 57.445313 36.253906 58.503906 37.222656 C 59.558594 38.203125 60.089844 39.78125 60.089844 41.964844 L 60.089844 51.914063 C 60.089844 54.449219 60.316406 56.136719 60.765625 56.980469 C 61.214844 57.820313 62.109375 58.242188 63.445313 58.242188 C 63.867188 58.242188 64.332031 58.207031 64.839844 58.140625 L 64.839844 59.375 C 63.460938 60.125 62.085938 60.496094 60.71875 60.496094 C 59.535156 60.496094 58.589844 60.101563 57.878906 59.304688 C 57.160156 58.519531 56.695313 57.324219 56.46875 55.738281 "/>
</g>
<g clip-path="url(#clip2)" clip-rule="nonzero">
<path class="letters" style=" stroke:none;fill-rule:nonzero;fill-opacity:1;" d="M 75.464844 60.5 L 66.464844 41.886719 C 65.558594 40.105469 64.875 38.960938 64.410156 38.453125 C 63.945313 37.941406 63.359375 37.683594 62.65625 37.683594 L 62.339844 37.683594 L 62.339844 36.390625 L 72.117188 36.390625 L 72.117188 37.683594 L 71.734375 37.683594 C 70.359375 37.683594 69.671875 38.027344 69.671875 38.710938 C 69.671875 39.171875 70.058594 40.21875 70.828125 41.84375 L 77.191406 55.136719 L 82.765625 41.863281 C 83.371094 40.464844 83.675781 39.507813 83.675781 38.984375 C 83.675781 38.117188 82.914063 37.683594 81.402344 37.683594 L 81.042969 37.683594 L 81.042969 36.390625 L 88.921875 36.390625 L 88.921875 37.683594 L 88.605469 37.683594 C 87.945313 37.683594 87.359375 37.976563 86.859375 38.566406 C 86.359375 39.15625 85.757813 40.253906 85.050781 41.863281 L 76.878906 60.5 L 75.464844 60.5 "/>
</g>
<g clip-path="url(#clip3)" clip-rule="nonzero">
<path class="letters" style=" stroke:none;fill-rule:nonzero;fill-opacity:1;" d="M 99.675781 59.039063 C 101.84375 59.039063 103.589844 58.042969 104.910156 56.039063 C 106.234375 54.039063 106.894531 51.402344 106.894531 48.125 C 106.894531 44.863281 106.234375 42.234375 104.910156 40.234375 C 103.589844 38.234375 101.84375 37.234375 99.675781 37.234375 C 97.523438 37.234375 95.78125 38.238281 94.460938 40.234375 C 93.136719 42.234375 92.476563 44.867188 92.476563 48.125 C 92.476563 51.402344 93.136719 54.042969 94.460938 56.039063 C 95.78125 58.042969 97.523438 59.039063 99.675781 59.039063 Z M 99.675781 60.5 C 96.199219 60.5 93.339844 59.335938 91.09375 57.019531 C 88.847656 54.699219 87.726563 51.734375 87.726563 48.125 C 87.726563 44.53125 88.847656 41.578125 91.09375 39.257813 C 93.339844 36.933594 96.199219 35.773438 99.675781 35.773438 C 103.164063 35.773438 106.035156 36.933594 108.28125 39.257813 C 110.523438 41.578125 111.648438 44.53125 111.648438 48.125 C 111.648438 51.730469 110.523438 54.695313 108.28125 57.019531 C 106.035156 59.339844 103.164063 60.5 99.675781 60.5 "/>
</g>
<path class="letters" style=" stroke:none;fill-rule:nonzero;fill-opacity:1;" d="M 120.320313 41.898438 L 120.320313 54.320313 C 120.320313 56.082031 120.554688 57.230469 121.027344 57.773438 C 121.5 58.320313 122.492188 58.585938 124.003906 58.585938 L 124.277344 58.585938 L 124.277344 59.882813 L 112.398438 59.882813 L 112.398438 58.589844 L 112.785156 58.589844 C 114.246094 58.589844 115.207031 58.320313 115.667969 57.777344 C 116.132813 57.234375 116.359375 56.082031 116.359375 54.320313 L 116.359375 44.867188 C 116.359375 42.933594 116.21875 41.695313 115.9375 41.148438 C 115.652344 40.601563 114.886719 40.0625 113.632813 39.53125 L 112.425781 39.007813 L 112.425781 38.667969 L 120.320313 35.773438 L 120.320313 40.605469 C 122.007813 38.976563 123.605469 37.753906 125.117188 36.941406 C 126.628906 36.128906 128.046875 35.71875 129.371094 35.71875 C 131.285156 35.71875 132.867188 36.371094 134.121094 37.675781 C 135.398438 39.007813 136.039063 41.433594 136.039063 44.957031 L 136.039063 54.320313 C 136.039063 56.082031 136.273438 57.230469 136.742188 57.777344 C 137.210938 58.320313 138.195313 58.589844 139.699219 58.589844 L 140 58.589844 L 140 59.882813 L 128.125 59.882813 L 128.125 58.589844 L 128.464844 58.589844 C 129.953125 58.589844 130.929688 58.320313 131.390625 57.769531 C 131.851563 57.21875 132.082031 56.070313 132.082031 54.320313 L 132.082031 44.871094 C 132.082031 42.796875 131.742188 41.292969 131.0625 40.363281 C 130.378906 39.441406 129.269531 38.976563 127.726563 38.976563 C 126.605469 38.976563 125.425781 39.222656 124.1875 39.707031 C 122.957031 40.183594 121.667969 40.914063 120.320313 41.898438 "/>
<path class="letters" style=" stroke:none;fill-rule:nonzero;fill-opacity:1;" d="M 9.335938 28.964844 L 9.335938 41.90625 L 16.339844 41.90625 C 18.210938 41.90625 19.460938 41.632813 20.089844 41.082031 C 20.925781 40.359375 21.398438 39.085938 21.492188 37.265625 L 22.367188 37.265625 L 22.367188 48.476563 L 21.492188 48.476563 C 21.269531 46.898438 21.042969 45.886719 20.816406 45.441406 C 20.527344 44.878906 20.046875 44.445313 19.390625 44.121094 C 18.726563 43.804688 17.710938 43.648438 16.339844 43.648438 L 9.335938 43.648438 L 9.335938 54.460938 C 9.335938 55.914063 9.398438 56.796875 9.527344 57.113281 C 9.65625 57.425781 9.882813 57.675781 10.203125 57.863281 C 10.523438 58.050781 11.128906 58.136719 12.03125 58.136719 L 17.5625 58.136719 C 19.40625 58.136719 20.746094 58.007813 21.578125 57.742188 C 22.410156 57.480469 23.214844 56.960938 23.980469 56.1875 C 24.976563 55.164063 25.996094 53.625 27.035156 51.570313 L 28.105469 51.570313 L 25.277344 59.875 L 0 59.875 L 0 58.582031 L 1.15625 58.582031 C 1.925781 58.582031 2.65625 58.394531 3.347656 58.023438 C 3.859375 57.761719 4.207031 57.371094 4.394531 56.855469 C 4.578125 56.332031 4.667969 55.269531 4.667969 53.65625 L 4.667969 33.410156 C 4.667969 31.285156 4.457031 29.976563 4.042969 29.480469 C 3.464844 28.816406 2.5 28.488281 1.15625 28.488281 L 0 28.488281 L 0 27.21875 L 25.289063 27.21875 L 25.578125 34.363281 L 24.507813 34.363281 C 24.175781 32.640625 23.804688 31.453125 23.398438 30.804688 C 22.988281 30.160156 22.390625 29.664063 21.59375 29.324219 C 20.957031 29.082031 19.832031 28.960938 18.222656 28.960938 L 9.335938 28.960938 L 9.335938 28.964844 "/>
</g>
</svg>
