<?xml version="1.0" encoding="UTF-8"?>
<svg id="Layer_4" data-name="Layer 4" xmlns="http://www.w3.org/2000/svg" viewBox="0 0 2017.16 2203.8">
  <defs>
    <style>
      .cls-1 {
        fill: #47709a;
      }
    </style>
  </defs>
  <g id="BLUE">
    <path class="cls-1" d="m1817.95,481.26c17.72,104.16-31.6,159.21-83.25,178.97-79.62,30.46-170.16-32.81-199.34-100.46-48.31-112,3.85-204.45,78.24-225.31,80.92-22.68,187.65,48.61,204.35,146.79Z"/>
    <path class="cls-1" d="m1353.76,2182.1c-149.94,37.62-535.63,48.39-722.63-156.13-235.32-257.36-110.35-508.69,16.78-592.72,125.82-83.17,432.28-10.87,491.27-51.71,196.08-135.75,42.72-433.48,249.95-527.9,231.59-105.52,470.44,64.21,517.02,128.53,181,249.95,101.66,695.22,34.25,844.87-107.74,239.17-451.93,321.27-586.64,355.06Z"/>
  </g>
</svg>